<svg width="70" height="70" viewBox="0 0 70 70" fill="none" xmlns="http://www.w3.org/2000/svg">
<path d="M43.75 15.3125C44.0379 15.3108 44.3233 15.366 44.5898 15.4748C44.8563 15.5837 45.0987 15.7441 45.3031 15.9468C45.5082 16.1502 45.6709 16.3921 45.7819 16.6587C45.893 16.9253 45.9502 17.2112 45.9502 17.5C45.9502 17.7887 45.893 18.0747 45.7819 18.3412C45.6709 18.6078 45.5082 18.8497 45.3031 19.0531L29.3344 35L45.3031 50.9468C45.715 51.3587 45.9464 51.9174 45.9464 52.5C45.9464 52.7884 45.8896 53.074 45.7793 53.3405C45.6689 53.607 45.5071 53.8491 45.3031 54.0531C45.0992 54.257 44.857 54.4188 44.5905 54.5292C44.3241 54.6396 44.0384 54.6964 43.75 54.6964C43.1675 54.6964 42.6088 54.465 42.1969 54.0531L24.6969 36.5531C24.4918 36.3497 24.3291 36.1078 24.218 35.8412C24.107 35.5747 24.0498 35.2887 24.0498 35C24.0498 34.7112 24.107 34.4253 24.218 34.1587C24.3291 33.8921 24.4918 33.6502 24.6969 33.4468L42.1969 15.9468C42.4013 15.7441 42.6437 15.5837 42.9102 15.4748C43.1767 15.366 43.4621 15.3108 43.75 15.3125Z" fill="white"/>
<rect x="69.5" y="69.5" width="69" height="69" rx="34.5" transform="rotate(-180 69.5 69.5)" stroke="white"/>
</svg>
